%TF.GenerationSoftware,KiCad,Pcbnew,8.0.3*%
%TF.CreationDate,2024-10-20T11:10:21+02:00*%
%TF.ProjectId,diyBMS_CurrentVoltage_ADS1115,64697942-4d53-45f4-9375-7272656e7456,rev?*%
%TF.SameCoordinates,Original*%
%TF.FileFunction,Soldermask,Top*%
%TF.FilePolarity,Negative*%
%FSLAX46Y46*%
G04 Gerber Fmt 4.6, Leading zero omitted, Abs format (unit mm)*
G04 Created by KiCad (PCBNEW 8.0.3) date 2024-10-20 11:10:21*
%MOMM*%
%LPD*%
G01*
G04 APERTURE LIST*
G04 Aperture macros list*
%AMRoundRect*
0 Rectangle with rounded corners*
0 $1 Rounding radius*
0 $2 $3 $4 $5 $6 $7 $8 $9 X,Y pos of 4 corners*
0 Add a 4 corners polygon primitive as box body*
4,1,4,$2,$3,$4,$5,$6,$7,$8,$9,$2,$3,0*
0 Add four circle primitives for the rounded corners*
1,1,$1+$1,$2,$3*
1,1,$1+$1,$4,$5*
1,1,$1+$1,$6,$7*
1,1,$1+$1,$8,$9*
0 Add four rect primitives between the rounded corners*
20,1,$1+$1,$2,$3,$4,$5,0*
20,1,$1+$1,$4,$5,$6,$7,0*
20,1,$1+$1,$6,$7,$8,$9,0*
20,1,$1+$1,$8,$9,$2,$3,0*%
%AMHorizOval*
0 Thick line with rounded ends*
0 $1 width*
0 $2 $3 position (X,Y) of the first rounded end (center of the circle)*
0 $4 $5 position (X,Y) of the second rounded end (center of the circle)*
0 Add line between two ends*
20,1,$1,$2,$3,$4,$5,0*
0 Add two circle primitives to create the rounded ends*
1,1,$1,$2,$3*
1,1,$1,$4,$5*%
G04 Aperture macros list end*
%ADD10C,0.150000*%
%ADD11C,1.440000*%
%ADD12C,0.800000*%
%ADD13R,2.484000X2.600000*%
%ADD14RoundRect,0.150000X-0.875000X-0.150000X0.875000X-0.150000X0.875000X0.150000X-0.875000X0.150000X0*%
%ADD15RoundRect,0.250000X-0.262500X-0.450000X0.262500X-0.450000X0.262500X0.450000X-0.262500X0.450000X0*%
%ADD16RoundRect,0.375000X0.375000X0.725000X-0.375000X0.725000X-0.375000X-0.725000X0.375000X-0.725000X0*%
%ADD17RoundRect,0.250000X-0.650000X1.000000X-0.650000X-1.000000X0.650000X-1.000000X0.650000X1.000000X0*%
%ADD18RoundRect,0.250000X0.250000X0.475000X-0.250000X0.475000X-0.250000X-0.475000X0.250000X-0.475000X0*%
%ADD19O,6.000000X2.500000*%
%ADD20RoundRect,0.250000X0.475000X-0.250000X0.475000X0.250000X-0.475000X0.250000X-0.475000X-0.250000X0*%
%ADD21C,3.200000*%
%ADD22C,16.000000*%
%ADD23RoundRect,0.250000X-0.250000X-0.475000X0.250000X-0.475000X0.250000X0.475000X-0.250000X0.475000X0*%
%ADD24RoundRect,0.250000X-0.475000X0.250000X-0.475000X-0.250000X0.475000X-0.250000X0.475000X0.250000X0*%
%ADD25C,5.600000*%
%ADD26RoundRect,0.250000X0.325000X1.100000X-0.325000X1.100000X-0.325000X-1.100000X0.325000X-1.100000X0*%
%ADD27RoundRect,0.250000X1.550000X-0.650000X1.550000X0.650000X-1.550000X0.650000X-1.550000X-0.650000X0*%
%ADD28O,3.600000X1.800000*%
%ADD29RoundRect,0.250000X0.262500X0.450000X-0.262500X0.450000X-0.262500X-0.450000X0.262500X-0.450000X0*%
%ADD30R,1.700000X1.700000*%
%ADD31O,1.700000X1.700000*%
%ADD32RoundRect,0.250000X0.325000X0.650000X-0.325000X0.650000X-0.325000X-0.650000X0.325000X-0.650000X0*%
%ADD33R,1.905000X0.640000*%
%ADD34R,1.100000X0.250000*%
%ADD35R,1.500000X1.500000*%
%ADD36C,1.500000*%
%ADD37HorizOval,0.800000X0.000000X0.000000X0.000000X0.000000X0*%
%ADD38HorizOval,0.800000X0.000000X0.000000X0.000000X0.000000X0*%
%ADD39O,9.000000X6.000000*%
%ADD40RoundRect,0.243750X-0.243750X-0.456250X0.243750X-0.456250X0.243750X0.456250X-0.243750X0.456250X0*%
%ADD41R,1.500000X1.000000*%
%ADD42RoundRect,0.249999X-1.550001X0.790001X-1.550001X-0.790001X1.550001X-0.790001X1.550001X0.790001X0*%
%ADD43O,3.600000X2.080000*%
%ADD44RoundRect,0.250000X0.450000X-0.262500X0.450000X0.262500X-0.450000X0.262500X-0.450000X-0.262500X0*%
%ADD45RoundRect,0.150000X-0.825000X-0.150000X0.825000X-0.150000X0.825000X0.150000X-0.825000X0.150000X0*%
%ADD46RoundRect,0.250000X-0.450000X0.262500X-0.450000X-0.262500X0.450000X-0.262500X0.450000X0.262500X0*%
%ADD47RoundRect,0.250000X1.075000X-0.375000X1.075000X0.375000X-1.075000X0.375000X-1.075000X-0.375000X0*%
%ADD48RoundRect,0.100000X-0.712500X-0.100000X0.712500X-0.100000X0.712500X0.100000X-0.712500X0.100000X0*%
%ADD49R,1.750000X2.250000*%
%ADD50O,1.750000X2.250000*%
G04 APERTURE END LIST*
D10*
X95300800Y-60985400D02*
X127635000Y-60985400D01*
X127635000Y-76174600D01*
X95300800Y-76174600D01*
X95300800Y-60985400D01*
G36*
X95300800Y-60985400D02*
G01*
X127635000Y-60985400D01*
X127635000Y-76174600D01*
X95300800Y-76174600D01*
X95300800Y-60985400D01*
G37*
X129209800Y-60883800D02*
X159969200Y-60883800D01*
X159969200Y-76174600D01*
X129209800Y-76174600D01*
X129209800Y-60883800D01*
G36*
X129209800Y-60883800D02*
G01*
X159969200Y-60883800D01*
X159969200Y-76174600D01*
X129209800Y-76174600D01*
X129209800Y-60883800D01*
G37*
D11*
%TO.C,RV1*%
X148336000Y-106807000D03*
X145796000Y-106807000D03*
X143256000Y-106807000D03*
%TD*%
D12*
%TO.C,*%
X144983200Y-61899800D03*
%TD*%
%TO.C,*%
X98679000Y-71879000D03*
%TD*%
%TO.C,*%
X151003000Y-66344800D03*
%TD*%
D13*
%TO.C,R5*%
X93296800Y-95986600D03*
X97812800Y-95986600D03*
%TD*%
D14*
%TO.C,U5*%
X156005000Y-99745800D03*
X156005000Y-101015800D03*
X156005000Y-102285800D03*
X156005000Y-103555800D03*
X156005000Y-104825800D03*
X156005000Y-106095800D03*
X156005000Y-107365800D03*
X156005000Y-108635800D03*
X165305000Y-108635800D03*
X165305000Y-107365800D03*
X165305000Y-106095800D03*
X165305000Y-104825800D03*
X165305000Y-103555800D03*
X165305000Y-102285800D03*
X165305000Y-101015800D03*
X165305000Y-99745800D03*
%TD*%
D12*
%TO.C,*%
X155448000Y-74713600D03*
%TD*%
D15*
%TO.C,R24*%
X172991100Y-84505800D03*
X174816100Y-84505800D03*
%TD*%
D12*
%TO.C,*%
X153924000Y-63144400D03*
%TD*%
%TO.C,*%
X101727000Y-71879000D03*
%TD*%
%TO.C,*%
X130505200Y-64516333D03*
%TD*%
D16*
%TO.C,L1*%
X166472000Y-85127500D03*
X160172000Y-85127500D03*
%TD*%
D12*
%TO.C,*%
X105740200Y-66344800D03*
%TD*%
%TO.C,*%
X157022800Y-72046933D03*
%TD*%
D17*
%TO.C,D4*%
X166475500Y-90771000D03*
X166475500Y-94771000D03*
%TD*%
D12*
%TO.C,*%
X132029200Y-67183000D03*
%TD*%
%TO.C,*%
X97155000Y-63500000D03*
%TD*%
D18*
%TO.C,C21*%
X174853600Y-86664800D03*
X172953600Y-86664800D03*
%TD*%
D12*
%TO.C,*%
X124841000Y-67183000D03*
%TD*%
%TO.C,*%
X121793000Y-64513000D03*
%TD*%
%TO.C,*%
X147116800Y-73050400D03*
%TD*%
D19*
%TO.C,*%
X167792400Y-62280800D03*
%TD*%
D12*
%TO.C,*%
X118237000Y-66370200D03*
%TD*%
%TO.C,*%
X147116800Y-74599800D03*
%TD*%
%TO.C,*%
X126365000Y-64513000D03*
%TD*%
D18*
%TO.C,C16*%
X147197000Y-101346000D03*
X145297000Y-101346000D03*
%TD*%
D12*
%TO.C,*%
X124841000Y-63183000D03*
%TD*%
%TO.C,*%
X121793000Y-65853000D03*
%TD*%
%TO.C,*%
X101727000Y-66167000D03*
%TD*%
%TO.C,*%
X97155000Y-73193600D03*
%TD*%
%TO.C,*%
X158546800Y-64477733D03*
%TD*%
D20*
%TO.C,C3*%
X125018800Y-101346000D03*
X125018800Y-99446000D03*
%TD*%
D12*
%TO.C,*%
X100203000Y-73219000D03*
%TD*%
D18*
%TO.C,C23*%
X174813000Y-82296000D03*
X172913000Y-82296000D03*
%TD*%
D12*
%TO.C,*%
X97155000Y-74523600D03*
%TD*%
%TO.C,*%
X157022800Y-67144400D03*
%TD*%
%TO.C,*%
X138988800Y-70739000D03*
%TD*%
D21*
%TO.C,J5*%
X116372800Y-64164400D03*
X111937800Y-64164400D03*
X107502800Y-64164400D03*
X116372800Y-68599400D03*
D22*
X111937800Y-68599400D03*
D21*
X107502800Y-68599400D03*
X116372800Y-73034400D03*
X111937800Y-73034400D03*
X107502800Y-73034400D03*
%TD*%
D12*
%TO.C,*%
X98679000Y-70549000D03*
%TD*%
%TO.C,*%
X153924000Y-67144400D03*
%TD*%
%TO.C,*%
X109753400Y-64135000D03*
%TD*%
D20*
%TO.C,C10*%
X168910000Y-101407000D03*
X168910000Y-99507000D03*
%TD*%
D12*
%TO.C,*%
X158546800Y-72046933D03*
%TD*%
%TO.C,*%
X153924000Y-65811066D03*
%TD*%
%TO.C,*%
X116357400Y-70866000D03*
%TD*%
%TO.C,*%
X157022800Y-74713600D03*
%TD*%
%TO.C,*%
X109855000Y-73025000D03*
%TD*%
D23*
%TO.C,C8*%
X118409700Y-100766900D03*
X120309700Y-100766900D03*
%TD*%
D24*
%TO.C,C6*%
X108229400Y-104510800D03*
X108229400Y-106410800D03*
%TD*%
D12*
%TO.C,*%
X133604000Y-63183000D03*
%TD*%
D13*
%TO.C,R3*%
X93347600Y-83185000D03*
X97863600Y-83185000D03*
%TD*%
D24*
%TO.C,C9*%
X152654000Y-99075200D03*
X152654000Y-100975200D03*
%TD*%
D23*
%TO.C,C5*%
X145288000Y-99187000D03*
X147188000Y-99187000D03*
%TD*%
D12*
%TO.C,*%
X142824200Y-62611000D03*
%TD*%
%TO.C,*%
X98679000Y-64830000D03*
%TD*%
D19*
%TO.C,*%
X89687400Y-75895200D03*
%TD*%
D23*
%TO.C,C13*%
X127132000Y-101031000D03*
X129032000Y-101031000D03*
%TD*%
D12*
%TO.C,*%
X153924000Y-74713600D03*
%TD*%
D25*
%TO.C,*%
X184658000Y-59436000D03*
%TD*%
D23*
%TO.C,C11*%
X126227800Y-96037400D03*
X128127800Y-96037400D03*
%TD*%
D12*
%TO.C,*%
X157022800Y-65811066D03*
%TD*%
%TO.C,*%
X109753400Y-62306200D03*
%TD*%
D15*
%TO.C,R8*%
X127220300Y-105399800D03*
X129045300Y-105399800D03*
%TD*%
D26*
%TO.C,C25*%
X163632500Y-90739000D03*
X160682500Y-90739000D03*
%TD*%
D18*
%TO.C,C18*%
X137070500Y-106045000D03*
X135170500Y-106045000D03*
%TD*%
D27*
%TO.C,J3*%
X182974000Y-102350000D03*
D28*
X182974000Y-98850000D03*
X182974000Y-95350000D03*
X182974000Y-91850000D03*
%TD*%
D12*
%TO.C,*%
X97155000Y-67500000D03*
%TD*%
D25*
%TO.C,*%
X184658000Y-108458000D03*
%TD*%
D17*
%TO.C,D1*%
X104698800Y-103181400D03*
X104698800Y-107181400D03*
%TD*%
D12*
%TO.C,*%
X107492800Y-66344800D03*
%TD*%
%TO.C,*%
X158546800Y-74713600D03*
%TD*%
D23*
%TO.C,C1*%
X112461000Y-91262200D03*
X114361000Y-91262200D03*
%TD*%
D12*
%TO.C,*%
X100203000Y-70549000D03*
%TD*%
%TO.C,*%
X158546800Y-65811066D03*
%TD*%
%TO.C,*%
X97155000Y-70523600D03*
%TD*%
%TO.C,*%
X107492800Y-70866000D03*
%TD*%
%TO.C,*%
X100203000Y-71879000D03*
%TD*%
%TO.C,*%
X98679000Y-67497000D03*
%TD*%
D19*
%TO.C,*%
X167792400Y-75920600D03*
%TD*%
D12*
%TO.C,*%
X123317000Y-67183000D03*
%TD*%
%TO.C,*%
X97155000Y-66166666D03*
%TD*%
D29*
%TO.C,R17*%
X132103500Y-96012000D03*
X130278500Y-96012000D03*
%TD*%
D12*
%TO.C,*%
X105257600Y-68630800D03*
%TD*%
%TO.C,*%
X114300000Y-73050400D03*
%TD*%
%TO.C,*%
X123317000Y-64513000D03*
%TD*%
D25*
%TO.C,*%
X83820000Y-108458000D03*
%TD*%
D12*
%TO.C,*%
X101727000Y-70549000D03*
%TD*%
%TO.C,*%
X126365000Y-67183000D03*
%TD*%
%TO.C,*%
X100203000Y-63500000D03*
%TD*%
%TO.C,*%
X155448000Y-67144400D03*
%TD*%
%TO.C,*%
X98679000Y-74549000D03*
%TD*%
D18*
%TO.C,C20*%
X176718000Y-94996000D03*
X174818000Y-94996000D03*
%TD*%
D12*
%TO.C,*%
X157022800Y-73380266D03*
%TD*%
D13*
%TO.C,R4*%
X97812800Y-89509600D03*
X93296800Y-89509600D03*
%TD*%
D30*
%TO.C,J2*%
X160274000Y-94361000D03*
D31*
X157734000Y-94361000D03*
X155194000Y-94361000D03*
X152654000Y-94361000D03*
X150114000Y-94361000D03*
X147574000Y-94361000D03*
X145034000Y-94361000D03*
X142494000Y-94361000D03*
X139954000Y-94361000D03*
X137414000Y-94361000D03*
X134874000Y-94361000D03*
%TD*%
D12*
%TO.C,*%
X155448000Y-72046933D03*
%TD*%
D23*
%TO.C,C4*%
X118150600Y-91313000D03*
X120050600Y-91313000D03*
%TD*%
D12*
%TO.C,*%
X105765600Y-70840600D03*
%TD*%
%TO.C,*%
X139065000Y-66421000D03*
%TD*%
D15*
%TO.C,R23*%
X169335600Y-84505800D03*
X171160600Y-84505800D03*
%TD*%
D12*
%TO.C,*%
X126365000Y-65853000D03*
%TD*%
%TO.C,*%
X147142200Y-64185800D03*
%TD*%
%TO.C,*%
X114300000Y-75057000D03*
%TD*%
%TO.C,*%
X140538200Y-70739000D03*
%TD*%
%TO.C,*%
X149453600Y-66344800D03*
%TD*%
%TO.C,*%
X158546800Y-67144400D03*
%TD*%
%TO.C,*%
X147142200Y-62687200D03*
%TD*%
%TO.C,*%
X155448000Y-64477733D03*
%TD*%
D18*
%TO.C,C14*%
X129108200Y-107635000D03*
X127208200Y-107635000D03*
%TD*%
D12*
%TO.C,*%
X101727000Y-63500000D03*
%TD*%
D29*
%TO.C,R14*%
X157833700Y-91031700D03*
X156008700Y-91031700D03*
%TD*%
D12*
%TO.C,*%
X101727000Y-67497000D03*
%TD*%
D15*
%TO.C,R21*%
X170918500Y-94996000D03*
X172743500Y-94996000D03*
%TD*%
D12*
%TO.C,*%
X124841000Y-64513000D03*
%TD*%
D32*
%TO.C,C19*%
X175719000Y-97282000D03*
X172769000Y-97282000D03*
%TD*%
D12*
%TO.C,*%
X98679000Y-66167000D03*
%TD*%
%TO.C,*%
X135128000Y-63183000D03*
%TD*%
%TO.C,*%
X142798800Y-74523600D03*
%TD*%
%TO.C,*%
X124841000Y-65853000D03*
%TD*%
%TO.C,*%
X114249200Y-62407800D03*
%TD*%
%TO.C,*%
X133604000Y-67183000D03*
%TD*%
D15*
%TO.C,R9*%
X156108024Y-88747048D03*
X157933024Y-88747048D03*
%TD*%
%TO.C,R12*%
X141712100Y-91008200D03*
X143537100Y-91008200D03*
%TD*%
D12*
%TO.C,*%
X158546800Y-70713600D03*
%TD*%
%TO.C,*%
X140563600Y-66421000D03*
%TD*%
D15*
%TO.C,R13*%
X141714000Y-87426800D03*
X143539000Y-87426800D03*
%TD*%
D12*
%TO.C,*%
X97155000Y-64833333D03*
%TD*%
%TO.C,*%
X130505200Y-67183000D03*
%TD*%
D19*
%TO.C,*%
X89687400Y-62255400D03*
%TD*%
D12*
%TO.C,*%
X116357400Y-66344800D03*
%TD*%
D29*
%TO.C,R18*%
X128952000Y-98933000D03*
X127127000Y-98933000D03*
%TD*%
D20*
%TO.C,C26*%
X139319000Y-105344000D03*
X139319000Y-103444000D03*
%TD*%
D12*
%TO.C,*%
X123317000Y-65853000D03*
%TD*%
D33*
%TO.C,U1*%
X111077700Y-103433900D03*
X111077700Y-104703900D03*
X111077700Y-105973900D03*
X111077700Y-107243900D03*
X121772700Y-107243900D03*
X121772700Y-105973900D03*
X121772700Y-104703900D03*
X121772700Y-103433900D03*
%TD*%
D12*
%TO.C,*%
X155448000Y-73380266D03*
%TD*%
D34*
%TO.C,U2*%
X135191400Y-99203000D03*
X135191400Y-99703000D03*
X135191400Y-100203000D03*
X135191400Y-100703000D03*
X135191400Y-101203000D03*
X139491400Y-101203000D03*
X139491400Y-100703000D03*
X139491400Y-100203000D03*
X139491400Y-99703000D03*
X139491400Y-99203000D03*
%TD*%
D12*
%TO.C,*%
X153924000Y-73380266D03*
%TD*%
%TO.C,*%
X133604000Y-64516333D03*
%TD*%
%TO.C,*%
X153924000Y-64477733D03*
%TD*%
D35*
%TO.C,U3*%
X126547800Y-93759400D03*
D36*
X128457800Y-93759400D03*
X130367800Y-93759400D03*
D37*
X129507800Y-71729400D03*
D38*
X129507800Y-72989400D03*
D12*
X130257800Y-70699400D03*
X130257800Y-74019400D03*
X131457800Y-70309400D03*
X131457800Y-74409400D03*
X132787800Y-70309400D03*
X132787800Y-74409400D03*
D39*
X133557800Y-72359400D03*
D12*
X134127800Y-70309400D03*
X134127800Y-74409400D03*
X135457800Y-70309400D03*
X135457800Y-74409400D03*
X136657800Y-70699400D03*
X136657800Y-74019400D03*
X137407800Y-71729400D03*
X137407800Y-72989400D03*
X119507800Y-71729400D03*
X119507800Y-72989400D03*
X120257800Y-70699400D03*
X120257800Y-74019400D03*
X121457800Y-70309400D03*
X121457800Y-74409400D03*
X122787800Y-70309400D03*
X122787800Y-74409400D03*
D39*
X123357800Y-72359400D03*
D12*
X124127800Y-70309400D03*
X124127800Y-74409400D03*
X125457800Y-70309400D03*
X125457800Y-74409400D03*
X126657800Y-70699400D03*
X126657800Y-74019400D03*
D38*
X127407800Y-71729400D03*
D37*
X127407800Y-72989400D03*
%TD*%
D29*
%TO.C,R10*%
X157933024Y-84683048D03*
X156108024Y-84683048D03*
%TD*%
D12*
%TO.C,*%
X157022800Y-64477733D03*
%TD*%
%TO.C,*%
X130505200Y-65849666D03*
%TD*%
%TO.C,*%
X118262400Y-70891400D03*
%TD*%
%TO.C,*%
X98679000Y-63500000D03*
%TD*%
%TO.C,*%
X158546800Y-73380266D03*
%TD*%
%TO.C,*%
X126365000Y-63183000D03*
%TD*%
D40*
%TO.C,D2*%
X137955200Y-90984148D03*
X139830200Y-90984148D03*
%TD*%
D15*
%TO.C,R7*%
X127193000Y-103190000D03*
X129018000Y-103190000D03*
%TD*%
D12*
%TO.C,*%
X100203000Y-74549000D03*
%TD*%
D41*
%TO.C,JP1*%
X169037000Y-104932000D03*
X169037000Y-103632000D03*
%TD*%
D12*
%TO.C,*%
X155448000Y-63144400D03*
%TD*%
D13*
%TO.C,R6*%
X97762000Y-102539800D03*
X93246000Y-102539800D03*
%TD*%
D42*
%TO.C,J1*%
X88417400Y-87909400D03*
D43*
X88417400Y-92989400D03*
X88417400Y-98069400D03*
%TD*%
D27*
%TO.C,J6*%
X182995500Y-85289000D03*
D28*
X182995500Y-81479000D03*
%TD*%
D18*
%TO.C,C7*%
X143676200Y-83718400D03*
X141776200Y-83718400D03*
%TD*%
D44*
%TO.C,R15*%
X153111200Y-108964100D03*
X153111200Y-107139100D03*
%TD*%
D12*
%TO.C,*%
X130505200Y-63183000D03*
%TD*%
%TO.C,*%
X153924000Y-70713600D03*
%TD*%
%TO.C,*%
X112014000Y-61620400D03*
%TD*%
D25*
%TO.C,REF\u002A\u002A*%
X83853987Y-59563000D03*
%TD*%
D12*
%TO.C,*%
X144957800Y-75311000D03*
%TD*%
%TO.C,*%
X149428200Y-70662800D03*
%TD*%
D20*
%TO.C,C15*%
X131318000Y-105090000D03*
X131318000Y-103190000D03*
%TD*%
D12*
%TO.C,*%
X114249200Y-64185800D03*
%TD*%
D23*
%TO.C,C2*%
X111932700Y-100893900D03*
X113832700Y-100893900D03*
%TD*%
D12*
%TO.C,*%
X98679000Y-73219000D03*
%TD*%
%TO.C,*%
X101727000Y-73219000D03*
%TD*%
%TO.C,*%
X101727000Y-74549000D03*
%TD*%
D45*
%TO.C,U4*%
X146648024Y-84124800D03*
X146648024Y-85394800D03*
X146648024Y-86664800D03*
X146648024Y-87934800D03*
X146648024Y-89204800D03*
X146648024Y-90474800D03*
X146648024Y-91744800D03*
X151598024Y-91744800D03*
X151598024Y-90474800D03*
X151598024Y-89204800D03*
X151598024Y-87934800D03*
X151598024Y-86664800D03*
X151598024Y-85394800D03*
X151598024Y-84124800D03*
%TD*%
D12*
%TO.C,*%
X97155000Y-71853600D03*
%TD*%
%TO.C,*%
X132029200Y-63183000D03*
%TD*%
%TO.C,*%
X151714200Y-68503800D03*
%TD*%
%TO.C,*%
X153924000Y-72046933D03*
%TD*%
%TO.C,*%
X138277600Y-68580000D03*
%TD*%
D29*
%TO.C,R11*%
X157933024Y-86715048D03*
X156108024Y-86715048D03*
%TD*%
D12*
%TO.C,*%
X123317000Y-63183000D03*
%TD*%
D46*
%TO.C,R16*%
X168910000Y-106783500D03*
X168910000Y-108608500D03*
%TD*%
D15*
%TO.C,R1*%
X135208000Y-108331000D03*
X137033000Y-108331000D03*
%TD*%
D44*
%TO.C,R2*%
X149352000Y-101115500D03*
X149352000Y-99290500D03*
%TD*%
D12*
%TO.C,*%
X158546800Y-63144400D03*
%TD*%
D47*
%TO.C,F1*%
X177673000Y-88141000D03*
X177673000Y-85341000D03*
%TD*%
D12*
%TO.C,*%
X100203000Y-66167000D03*
%TD*%
D48*
%TO.C,U6*%
X171750500Y-89957000D03*
X171750500Y-90607000D03*
X171750500Y-91257000D03*
X171750500Y-91907000D03*
X175975500Y-91907000D03*
X175975500Y-91257000D03*
X175975500Y-90607000D03*
X175975500Y-89957000D03*
%TD*%
D40*
%TO.C,D3*%
X137955200Y-87428148D03*
X139830200Y-87428148D03*
%TD*%
D44*
%TO.C,R20*%
X178181000Y-91844500D03*
X178181000Y-90019500D03*
%TD*%
D12*
%TO.C,*%
X121793000Y-67183000D03*
%TD*%
%TO.C,*%
X109855000Y-75057000D03*
%TD*%
%TO.C,*%
X155448000Y-65811066D03*
%TD*%
%TO.C,*%
X100203000Y-64830000D03*
%TD*%
D21*
%TO.C,J4*%
X149402800Y-64164400D03*
X144967800Y-64164400D03*
X140532800Y-64164400D03*
X149402800Y-68599400D03*
D22*
X144967800Y-68599400D03*
D21*
X140532800Y-68599400D03*
X149402800Y-73034400D03*
X144967800Y-73034400D03*
X140532800Y-73034400D03*
%TD*%
D12*
%TO.C,*%
X157022800Y-70713600D03*
%TD*%
D23*
%TO.C,C24*%
X169276600Y-82344800D03*
X171176600Y-82344800D03*
%TD*%
D12*
%TO.C,*%
X157022800Y-63144400D03*
%TD*%
D20*
%TO.C,C22*%
X169396500Y-91816000D03*
X169396500Y-89916000D03*
%TD*%
D12*
%TO.C,*%
X111988600Y-75666600D03*
%TD*%
D15*
%TO.C,R22*%
X169314100Y-86662800D03*
X171139100Y-86662800D03*
%TD*%
D12*
%TO.C,*%
X135128000Y-67183000D03*
%TD*%
%TO.C,*%
X135128000Y-65849666D03*
%TD*%
%TO.C,*%
X142824200Y-64160400D03*
%TD*%
%TO.C,*%
X101727000Y-64830000D03*
%TD*%
%TO.C,*%
X132029200Y-64516333D03*
%TD*%
%TO.C,*%
X118948200Y-68630800D03*
%TD*%
%TO.C,*%
X132029200Y-65849666D03*
%TD*%
%TO.C,*%
X150926800Y-70662800D03*
%TD*%
%TO.C,*%
X133604000Y-65849666D03*
%TD*%
%TO.C,*%
X155448000Y-70713600D03*
%TD*%
D49*
%TO.C,PS1*%
X119867700Y-94352400D03*
D50*
X117327700Y-94352400D03*
X114787700Y-94352400D03*
X112247700Y-94352400D03*
%TD*%
D12*
%TO.C,*%
X135128000Y-64516333D03*
%TD*%
%TO.C,*%
X142798800Y-73025000D03*
%TD*%
%TO.C,*%
X100203000Y-67497000D03*
%TD*%
D20*
%TO.C,C12*%
X142367000Y-101153000D03*
X142367000Y-99253000D03*
%TD*%
D12*
%TO.C,*%
X121793000Y-63183000D03*
%TD*%
D18*
%TO.C,C17*%
X137070500Y-103657400D03*
X135170500Y-103657400D03*
%TD*%
M02*
