M48
; DRILL file {KiCad 8.0.3} date 2024-10-20T11:10:21+0200
; FORMAT={-:-/ absolute / inch / decimal}
; #@! TF.CreationDate,2024-10-20T11:10:21+02:00
; #@! TF.GenerationSoftware,Kicad,Pcbnew,8.0.3
; #@! TF.FileFunction,Plated,1,2,PTH
FMAT,2
INCH
; #@! TA.AperFunction,Plated,PTH,ViaDrill
T1C0.0157
; #@! TA.AperFunction,Plated,PTH,ComponentDrill
T2C0.0197
; #@! TA.AperFunction,Plated,PTH,ComponentDrill
T3C0.0315
; #@! TA.AperFunction,Plated,PTH,ComponentDrill
T4C0.0394
; #@! TA.AperFunction,Plated,PTH,ComponentDrill
T5C0.0423
; #@! TA.AperFunction,Plated,PTH,ComponentDrill
T6C0.0472
; #@! TA.AperFunction,Plated,PTH,ComponentDrill
T7C0.0551
; #@! TA.AperFunction,Plated,PTH,ComponentDrill
T8C0.0591
; #@! TA.AperFunction,Plated,PTH,ComponentDrill
T9C0.0728
; #@! TA.AperFunction,Plated,PTH,ComponentDrill
T10C0.0787
; #@! TA.AperFunction,Plated,PTH,ComponentDrill
T11C0.1260
; #@! TA.AperFunction,Plated,PTH,ComponentDrill
T12C0.2362
%
G90
G05
T1
X4.84Y-4.308
X4.846Y-3.91
X4.969Y-4.308
X5.2009Y-3.985
X5.354Y-3.467
X5.355Y-3.515
X5.355Y-3.56
X5.55Y-3.985
X5.5709Y-3.5138
X5.5709Y-3.5138
X5.58Y-4.08
X5.605Y-3.865
X5.615Y-4.08
X5.65Y-4.08
X5.705Y-3.312
X5.835Y-3.945
X5.871Y-3.412
X5.871Y-3.462
X5.89Y-4.085
X5.89Y-4.135
X5.9285Y-4.028
X5.96Y-4.178
X6.033Y-4.08
X6.055Y-3.462
X6.085Y-3.411
X6.245Y-4.03
X6.245Y-4.08
X6.245Y-4.13
X6.44Y-3.68
X6.44Y-3.68
X6.44Y-3.73
X6.44Y-3.78
X6.585Y-4.175
X6.76Y-4.0364
X6.845Y-3.69
X6.995Y-3.415
X6.995Y-3.67
T2
X3.825Y-2.5
X3.825Y-2.5525
X3.825Y-2.605
X3.825Y-2.6575
X3.825Y-2.7765
X3.825Y-2.8289
X3.825Y-2.8816
X3.825Y-2.934
X3.885Y-2.5
X3.885Y-2.5524
X3.885Y-2.605
X3.885Y-2.6574
X3.885Y-2.7775
X3.885Y-2.8299
X3.885Y-2.8826
X3.885Y-2.935
X3.945Y-2.5
X3.945Y-2.5524
X3.945Y-2.605
X3.945Y-2.6574
X3.945Y-2.7775
X3.945Y-2.8299
X3.945Y-2.8826
X3.945Y-2.935
X4.005Y-2.5
X4.005Y-2.5524
X4.005Y-2.605
X4.005Y-2.6574
X4.005Y-2.7775
X4.005Y-2.8299
X4.005Y-2.8826
X4.005Y-2.935
X4.144Y-2.702
X4.163Y-2.612
X4.164Y-2.789
X4.232Y-2.612
X4.232Y-2.79
X4.321Y-2.453
X4.321Y-2.525
X4.325Y-2.875
X4.325Y-2.955
X4.409Y-2.979
X4.41Y-2.426
X4.498Y-2.457
X4.498Y-2.527
X4.5Y-2.876
X4.5Y-2.955
X4.581Y-2.612
X4.581Y-2.79
X4.655Y-2.613
X4.656Y-2.791
X4.683Y-2.702
X4.705Y-2.824
X4.705Y-2.8736
X4.7346Y-2.7834
X4.7346Y-2.9141
X4.7818Y-2.7681
X4.7818Y-2.9295
X4.795Y-2.4875
X4.795Y-2.5399
X4.795Y-2.5926
X4.795Y-2.645
X4.8342Y-2.7681
X4.8342Y-2.9295
X4.855Y-2.4875
X4.855Y-2.5399
X4.855Y-2.5926
X4.855Y-2.645
X4.8869Y-2.7681
X4.8869Y-2.9295
X4.915Y-2.4875
X4.915Y-2.5399
X4.915Y-2.5926
X4.915Y-2.645
X4.9393Y-2.7681
X4.9393Y-2.9295
X4.975Y-2.4875
X4.975Y-2.5399
X4.975Y-2.5926
X4.975Y-2.645
X4.9865Y-2.7834
X4.9865Y-2.9141
X5.0161Y-2.824
X5.0161Y-2.8736
X5.0987Y-2.824
X5.0987Y-2.8736
X5.1283Y-2.7834
X5.1283Y-2.9141
X5.138Y-2.4875
X5.138Y-2.54
X5.138Y-2.5925
X5.138Y-2.645
X5.1755Y-2.7681
X5.1755Y-2.9295
X5.198Y-2.4875
X5.198Y-2.54
X5.198Y-2.5925
X5.198Y-2.645
X5.2279Y-2.7681
X5.2279Y-2.9295
X5.26Y-2.4875
X5.26Y-2.54
X5.26Y-2.5925
X5.26Y-2.645
X5.2806Y-2.7681
X5.2806Y-2.9295
X5.32Y-2.4875
X5.32Y-2.54
X5.32Y-2.5925
X5.32Y-2.645
X5.333Y-2.7681
X5.333Y-2.9295
X5.3802Y-2.7834
X5.3802Y-2.9141
X5.4098Y-2.824
X5.4098Y-2.8736
X5.444Y-2.7
X5.472Y-2.785
X5.475Y-2.615
X5.533Y-2.785
X5.534Y-2.615
X5.622Y-2.875
X5.622Y-2.934
X5.623Y-2.465
X5.623Y-2.526
X5.707Y-2.965
X5.708Y-2.437
X5.792Y-2.876
X5.792Y-2.937
X5.793Y-2.468
X5.793Y-2.527
X5.883Y-2.782
X5.884Y-2.612
X5.942Y-2.782
X5.945Y-2.612
X5.973Y-2.697
X6.06Y-2.486
X6.06Y-2.5385
X6.06Y-2.591
X6.06Y-2.6435
X6.06Y-2.784
X6.06Y-2.8365
X6.06Y-2.889
X6.06Y-2.9415
X6.12Y-2.486
X6.12Y-2.5385
X6.12Y-2.591
X6.12Y-2.6435
X6.12Y-2.784
X6.12Y-2.8365
X6.12Y-2.889
X6.12Y-2.9415
X6.182Y-2.486
X6.182Y-2.5385
X6.182Y-2.591
X6.182Y-2.6435
X6.182Y-2.784
X6.182Y-2.8365
X6.182Y-2.889
X6.182Y-2.9415
X6.242Y-2.486
X6.242Y-2.5385
X6.242Y-2.591
X6.242Y-2.6435
X6.242Y-2.784
X6.242Y-2.8365
X6.242Y-2.889
X6.242Y-2.9415
T3
X4.9822Y-3.6913
X5.0574Y-3.6913
X5.1326Y-3.6913
X5.64Y-4.205
X5.74Y-4.205
X5.84Y-4.205
T4
X5.31Y-3.715
X5.41Y-3.715
X5.51Y-3.715
X5.61Y-3.715
X5.71Y-3.715
X5.81Y-3.715
X5.91Y-3.715
X6.01Y-3.715
X6.11Y-3.715
X6.21Y-3.715
X6.31Y-3.715
T5
X4.4192Y-3.7147
X4.5192Y-3.7147
X4.6192Y-3.7147
X4.7192Y-3.7147
T6
X7.2037Y-3.6161
X7.2037Y-3.7539
X7.2037Y-3.8917
X7.2037Y-4.0295
X7.2045Y-3.2078
X7.2045Y-3.3578
T7
X3.481Y-3.461
X3.481Y-3.661
X3.481Y-3.861
T9
X4.2324Y-2.5262
X4.2324Y-2.7008
X4.2324Y-2.8754
X4.407Y-2.5262
X4.407Y-2.8754
X4.5816Y-2.5262
X4.5816Y-2.7008
X4.5816Y-2.8754
X5.5328Y-2.5262
X5.5328Y-2.7008
X5.5328Y-2.8754
X5.7074Y-2.5262
X5.7074Y-2.8754
X5.882Y-2.5262
X5.882Y-2.7008
X5.882Y-2.8754
T11
X3.3Y-4.27
X3.3013Y-2.345
X7.27Y-2.34
X7.27Y-4.27
T12
X4.407Y-2.7008
X5.7074Y-2.7008
T8
G00X3.4621Y-2.451
M15
G01X3.5999Y-2.451
M16
G05
G00X3.4621Y-2.988
M15
G01X3.5999Y-2.988
M16
G05
G00X6.5371Y-2.452
M15
G01X6.6749Y-2.452
M16
G05
G00X6.5371Y-2.989
M15
G01X6.6749Y-2.989
M16
G05
T10
G00X4.7818Y-2.8488
M15
G01X4.9393Y-2.8488
M16
G05
G00X5.1755Y-2.8488
M15
G01X5.333Y-2.8488
M16
G05
M30
