%TF.GenerationSoftware,KiCad,Pcbnew,8.0.3*%
%TF.CreationDate,2024-10-20T11:10:21+02:00*%
%TF.ProjectId,diyBMS_CurrentVoltage_ADS1115,64697942-4d53-45f4-9375-7272656e7456,rev?*%
%TF.SameCoordinates,Original*%
%TF.FileFunction,Paste,Top*%
%TF.FilePolarity,Positive*%
%FSLAX46Y46*%
G04 Gerber Fmt 4.6, Leading zero omitted, Abs format (unit mm)*
G04 Created by KiCad (PCBNEW 8.0.3) date 2024-10-20 11:10:21*
%MOMM*%
%LPD*%
G01*
G04 APERTURE LIST*
G04 Aperture macros list*
%AMRoundRect*
0 Rectangle with rounded corners*
0 $1 Rounding radius*
0 $2 $3 $4 $5 $6 $7 $8 $9 X,Y pos of 4 corners*
0 Add a 4 corners polygon primitive as box body*
4,1,4,$2,$3,$4,$5,$6,$7,$8,$9,$2,$3,0*
0 Add four circle primitives for the rounded corners*
1,1,$1+$1,$2,$3*
1,1,$1+$1,$4,$5*
1,1,$1+$1,$6,$7*
1,1,$1+$1,$8,$9*
0 Add four rect primitives between the rounded corners*
20,1,$1+$1,$2,$3,$4,$5,0*
20,1,$1+$1,$4,$5,$6,$7,0*
20,1,$1+$1,$6,$7,$8,$9,0*
20,1,$1+$1,$8,$9,$2,$3,0*%
G04 Aperture macros list end*
%ADD10R,2.484000X2.600000*%
%ADD11RoundRect,0.150000X-0.875000X-0.150000X0.875000X-0.150000X0.875000X0.150000X-0.875000X0.150000X0*%
%ADD12RoundRect,0.250000X-0.262500X-0.450000X0.262500X-0.450000X0.262500X0.450000X-0.262500X0.450000X0*%
%ADD13RoundRect,0.375000X0.375000X0.725000X-0.375000X0.725000X-0.375000X-0.725000X0.375000X-0.725000X0*%
%ADD14RoundRect,0.250000X-0.650000X1.000000X-0.650000X-1.000000X0.650000X-1.000000X0.650000X1.000000X0*%
%ADD15RoundRect,0.250000X0.250000X0.475000X-0.250000X0.475000X-0.250000X-0.475000X0.250000X-0.475000X0*%
%ADD16RoundRect,0.250000X0.475000X-0.250000X0.475000X0.250000X-0.475000X0.250000X-0.475000X-0.250000X0*%
%ADD17C,3.100000*%
%ADD18RoundRect,0.250000X-0.250000X-0.475000X0.250000X-0.475000X0.250000X0.475000X-0.250000X0.475000X0*%
%ADD19RoundRect,0.250000X-0.475000X0.250000X-0.475000X-0.250000X0.475000X-0.250000X0.475000X0.250000X0*%
%ADD20RoundRect,0.250000X0.325000X1.100000X-0.325000X1.100000X-0.325000X-1.100000X0.325000X-1.100000X0*%
%ADD21RoundRect,0.250000X0.262500X0.450000X-0.262500X0.450000X-0.262500X-0.450000X0.262500X-0.450000X0*%
%ADD22RoundRect,0.250000X0.325000X0.650000X-0.325000X0.650000X-0.325000X-0.650000X0.325000X-0.650000X0*%
%ADD23R,1.905000X0.640000*%
%ADD24R,1.100000X0.250000*%
%ADD25RoundRect,0.243750X-0.243750X-0.456250X0.243750X-0.456250X0.243750X0.456250X-0.243750X0.456250X0*%
%ADD26RoundRect,0.250000X0.450000X-0.262500X0.450000X0.262500X-0.450000X0.262500X-0.450000X-0.262500X0*%
%ADD27RoundRect,0.150000X-0.825000X-0.150000X0.825000X-0.150000X0.825000X0.150000X-0.825000X0.150000X0*%
%ADD28RoundRect,0.250000X-0.450000X0.262500X-0.450000X-0.262500X0.450000X-0.262500X0.450000X0.262500X0*%
%ADD29RoundRect,0.250000X1.075000X-0.375000X1.075000X0.375000X-1.075000X0.375000X-1.075000X-0.375000X0*%
%ADD30RoundRect,0.100000X-0.712500X-0.100000X0.712500X-0.100000X0.712500X0.100000X-0.712500X0.100000X0*%
G04 APERTURE END LIST*
D10*
%TO.C,R5*%
X93296800Y-95986600D03*
X97812800Y-95986600D03*
%TD*%
D11*
%TO.C,U5*%
X156005000Y-99745800D03*
X156005000Y-101015800D03*
X156005000Y-102285800D03*
X156005000Y-103555800D03*
X156005000Y-104825800D03*
X156005000Y-106095800D03*
X156005000Y-107365800D03*
X156005000Y-108635800D03*
X165305000Y-108635800D03*
X165305000Y-107365800D03*
X165305000Y-106095800D03*
X165305000Y-104825800D03*
X165305000Y-103555800D03*
X165305000Y-102285800D03*
X165305000Y-101015800D03*
X165305000Y-99745800D03*
%TD*%
D12*
%TO.C,R24*%
X172991100Y-84505800D03*
X174816100Y-84505800D03*
%TD*%
D13*
%TO.C,L1*%
X166472000Y-85127500D03*
X160172000Y-85127500D03*
%TD*%
D14*
%TO.C,D4*%
X166475500Y-90771000D03*
X166475500Y-94771000D03*
%TD*%
D15*
%TO.C,C21*%
X174853600Y-86664800D03*
X172953600Y-86664800D03*
%TD*%
%TO.C,C16*%
X147197000Y-101346000D03*
X145297000Y-101346000D03*
%TD*%
D16*
%TO.C,C3*%
X125018800Y-101346000D03*
X125018800Y-99446000D03*
%TD*%
D15*
%TO.C,C23*%
X174813000Y-82296000D03*
X172913000Y-82296000D03*
%TD*%
D17*
%TO.C,J5*%
X116372800Y-64164400D03*
X111937800Y-64164400D03*
X107502800Y-64164400D03*
X116372800Y-68599400D03*
X111937800Y-68599400D03*
X107502800Y-68599400D03*
X116372800Y-73034400D03*
X111937800Y-73034400D03*
X107502800Y-73034400D03*
%TD*%
D16*
%TO.C,C10*%
X168910000Y-101407000D03*
X168910000Y-99507000D03*
%TD*%
D18*
%TO.C,C8*%
X118409700Y-100766900D03*
X120309700Y-100766900D03*
%TD*%
D19*
%TO.C,C6*%
X108229400Y-104510800D03*
X108229400Y-106410800D03*
%TD*%
D10*
%TO.C,R3*%
X93347600Y-83185000D03*
X97863600Y-83185000D03*
%TD*%
D19*
%TO.C,C9*%
X152654000Y-99075200D03*
X152654000Y-100975200D03*
%TD*%
D18*
%TO.C,C5*%
X145288000Y-99187000D03*
X147188000Y-99187000D03*
%TD*%
%TO.C,C13*%
X127132000Y-101031000D03*
X129032000Y-101031000D03*
%TD*%
%TO.C,C11*%
X126227800Y-96037400D03*
X128127800Y-96037400D03*
%TD*%
D12*
%TO.C,R8*%
X127220300Y-105399800D03*
X129045300Y-105399800D03*
%TD*%
D20*
%TO.C,C25*%
X163632500Y-90739000D03*
X160682500Y-90739000D03*
%TD*%
D15*
%TO.C,C18*%
X137070500Y-106045000D03*
X135170500Y-106045000D03*
%TD*%
D14*
%TO.C,D1*%
X104698800Y-103181400D03*
X104698800Y-107181400D03*
%TD*%
D18*
%TO.C,C1*%
X112461000Y-91262200D03*
X114361000Y-91262200D03*
%TD*%
D21*
%TO.C,R17*%
X132103500Y-96012000D03*
X130278500Y-96012000D03*
%TD*%
D15*
%TO.C,C20*%
X176718000Y-94996000D03*
X174818000Y-94996000D03*
%TD*%
D10*
%TO.C,R4*%
X97812800Y-89509600D03*
X93296800Y-89509600D03*
%TD*%
D18*
%TO.C,C4*%
X118150600Y-91313000D03*
X120050600Y-91313000D03*
%TD*%
D12*
%TO.C,R23*%
X169335600Y-84505800D03*
X171160600Y-84505800D03*
%TD*%
D15*
%TO.C,C14*%
X129108200Y-107635000D03*
X127208200Y-107635000D03*
%TD*%
D21*
%TO.C,R14*%
X157833700Y-91031700D03*
X156008700Y-91031700D03*
%TD*%
D12*
%TO.C,R21*%
X170918500Y-94996000D03*
X172743500Y-94996000D03*
%TD*%
D22*
%TO.C,C19*%
X175719000Y-97282000D03*
X172769000Y-97282000D03*
%TD*%
D12*
%TO.C,R9*%
X156108024Y-88747048D03*
X157933024Y-88747048D03*
%TD*%
%TO.C,R12*%
X141712100Y-91008200D03*
X143537100Y-91008200D03*
%TD*%
%TO.C,R13*%
X141714000Y-87426800D03*
X143539000Y-87426800D03*
%TD*%
D21*
%TO.C,R18*%
X128952000Y-98933000D03*
X127127000Y-98933000D03*
%TD*%
D16*
%TO.C,C26*%
X139319000Y-105344000D03*
X139319000Y-103444000D03*
%TD*%
D23*
%TO.C,U1*%
X111077700Y-103433900D03*
X111077700Y-104703900D03*
X111077700Y-105973900D03*
X111077700Y-107243900D03*
X121772700Y-107243900D03*
X121772700Y-105973900D03*
X121772700Y-104703900D03*
X121772700Y-103433900D03*
%TD*%
D24*
%TO.C,U2*%
X135191400Y-99203000D03*
X135191400Y-99703000D03*
X135191400Y-100203000D03*
X135191400Y-100703000D03*
X135191400Y-101203000D03*
X139491400Y-101203000D03*
X139491400Y-100703000D03*
X139491400Y-100203000D03*
X139491400Y-99703000D03*
X139491400Y-99203000D03*
%TD*%
D21*
%TO.C,R10*%
X157933024Y-84683048D03*
X156108024Y-84683048D03*
%TD*%
D25*
%TO.C,D2*%
X137955200Y-90984148D03*
X139830200Y-90984148D03*
%TD*%
D12*
%TO.C,R7*%
X127193000Y-103190000D03*
X129018000Y-103190000D03*
%TD*%
D10*
%TO.C,R6*%
X97762000Y-102539800D03*
X93246000Y-102539800D03*
%TD*%
D15*
%TO.C,C7*%
X143676200Y-83718400D03*
X141776200Y-83718400D03*
%TD*%
D26*
%TO.C,R15*%
X153111200Y-108964100D03*
X153111200Y-107139100D03*
%TD*%
D16*
%TO.C,C15*%
X131318000Y-105090000D03*
X131318000Y-103190000D03*
%TD*%
D18*
%TO.C,C2*%
X111932700Y-100893900D03*
X113832700Y-100893900D03*
%TD*%
D27*
%TO.C,U4*%
X146648024Y-84124800D03*
X146648024Y-85394800D03*
X146648024Y-86664800D03*
X146648024Y-87934800D03*
X146648024Y-89204800D03*
X146648024Y-90474800D03*
X146648024Y-91744800D03*
X151598024Y-91744800D03*
X151598024Y-90474800D03*
X151598024Y-89204800D03*
X151598024Y-87934800D03*
X151598024Y-86664800D03*
X151598024Y-85394800D03*
X151598024Y-84124800D03*
%TD*%
D21*
%TO.C,R11*%
X157933024Y-86715048D03*
X156108024Y-86715048D03*
%TD*%
D28*
%TO.C,R16*%
X168910000Y-106783500D03*
X168910000Y-108608500D03*
%TD*%
D12*
%TO.C,R1*%
X135208000Y-108331000D03*
X137033000Y-108331000D03*
%TD*%
D26*
%TO.C,R2*%
X149352000Y-101115500D03*
X149352000Y-99290500D03*
%TD*%
D29*
%TO.C,F1*%
X177673000Y-88141000D03*
X177673000Y-85341000D03*
%TD*%
D30*
%TO.C,U6*%
X171750500Y-89957000D03*
X171750500Y-90607000D03*
X171750500Y-91257000D03*
X171750500Y-91907000D03*
X175975500Y-91907000D03*
X175975500Y-91257000D03*
X175975500Y-90607000D03*
X175975500Y-89957000D03*
%TD*%
D25*
%TO.C,D3*%
X137955200Y-87428148D03*
X139830200Y-87428148D03*
%TD*%
D26*
%TO.C,R20*%
X178181000Y-91844500D03*
X178181000Y-90019500D03*
%TD*%
D17*
%TO.C,J4*%
X149402800Y-64164400D03*
X144967800Y-64164400D03*
X140532800Y-64164400D03*
X149402800Y-68599400D03*
X144967800Y-68599400D03*
X140532800Y-68599400D03*
X149402800Y-73034400D03*
X144967800Y-73034400D03*
X140532800Y-73034400D03*
%TD*%
D18*
%TO.C,C24*%
X169276600Y-82344800D03*
X171176600Y-82344800D03*
%TD*%
D16*
%TO.C,C22*%
X169396500Y-91816000D03*
X169396500Y-89916000D03*
%TD*%
D12*
%TO.C,R22*%
X169314100Y-86662800D03*
X171139100Y-86662800D03*
%TD*%
D16*
%TO.C,C12*%
X142367000Y-101153000D03*
X142367000Y-99253000D03*
%TD*%
D15*
%TO.C,C17*%
X137070500Y-103657400D03*
X135170500Y-103657400D03*
%TD*%
M02*
