%TF.GenerationSoftware,KiCad,Pcbnew,8.0.3*%
%TF.CreationDate,2024-10-20T11:10:21+02:00*%
%TF.ProjectId,diyBMS_CurrentVoltage_ADS1115,64697942-4d53-45f4-9375-7272656e7456,rev?*%
%TF.SameCoordinates,Original*%
%TF.FileFunction,Soldermask,Bot*%
%TF.FilePolarity,Negative*%
%FSLAX46Y46*%
G04 Gerber Fmt 4.6, Leading zero omitted, Abs format (unit mm)*
G04 Created by KiCad (PCBNEW 8.0.3) date 2024-10-20 11:10:21*
%MOMM*%
%LPD*%
G01*
G04 APERTURE LIST*
G04 Aperture macros list*
%AMRoundRect*
0 Rectangle with rounded corners*
0 $1 Rounding radius*
0 $2 $3 $4 $5 $6 $7 $8 $9 X,Y pos of 4 corners*
0 Add a 4 corners polygon primitive as box body*
4,1,4,$2,$3,$4,$5,$6,$7,$8,$9,$2,$3,0*
0 Add four circle primitives for the rounded corners*
1,1,$1+$1,$2,$3*
1,1,$1+$1,$4,$5*
1,1,$1+$1,$6,$7*
1,1,$1+$1,$8,$9*
0 Add four rect primitives between the rounded corners*
20,1,$1+$1,$2,$3,$4,$5,0*
20,1,$1+$1,$4,$5,$6,$7,0*
20,1,$1+$1,$6,$7,$8,$9,0*
20,1,$1+$1,$8,$9,$2,$3,0*%
%AMHorizOval*
0 Thick line with rounded ends*
0 $1 width*
0 $2 $3 position (X,Y) of the first rounded end (center of the circle)*
0 $4 $5 position (X,Y) of the second rounded end (center of the circle)*
0 Add line between two ends*
20,1,$1,$2,$3,$4,$5,0*
0 Add two circle primitives to create the rounded ends*
1,1,$1,$2,$3*
1,1,$1,$4,$5*%
G04 Aperture macros list end*
%ADD10C,0.200000*%
%ADD11C,0.150000*%
%ADD12C,1.440000*%
%ADD13C,0.800000*%
%ADD14O,6.000000X2.500000*%
%ADD15C,3.200000*%
%ADD16C,16.000000*%
%ADD17C,5.600000*%
%ADD18RoundRect,0.250000X1.550000X-0.650000X1.550000X0.650000X-1.550000X0.650000X-1.550000X-0.650000X0*%
%ADD19O,3.600000X1.800000*%
%ADD20R,1.700000X1.700000*%
%ADD21O,1.700000X1.700000*%
%ADD22R,1.500000X1.500000*%
%ADD23C,1.500000*%
%ADD24HorizOval,0.800000X0.000000X0.000000X0.000000X0.000000X0*%
%ADD25HorizOval,0.800000X0.000000X0.000000X0.000000X0.000000X0*%
%ADD26O,9.000000X6.000000*%
%ADD27RoundRect,0.249999X-1.550001X0.790001X-1.550001X-0.790001X1.550001X-0.790001X1.550001X0.790001X0*%
%ADD28O,3.600000X2.080000*%
%ADD29R,1.750000X2.250000*%
%ADD30O,1.750000X2.250000*%
G04 APERTURE END LIST*
D10*
X95377000Y-61036200D02*
X127584200Y-61036200D01*
X127584200Y-76092400D01*
X95377000Y-76092400D01*
X95377000Y-61036200D01*
G36*
X95377000Y-61036200D02*
G01*
X127584200Y-61036200D01*
X127584200Y-76092400D01*
X95377000Y-76092400D01*
X95377000Y-61036200D01*
G37*
D11*
X129260600Y-60934600D02*
X159918400Y-60934600D01*
X159918400Y-76149200D01*
X129260600Y-76149200D01*
X129260600Y-60934600D01*
G36*
X129260600Y-60934600D02*
G01*
X159918400Y-60934600D01*
X159918400Y-76149200D01*
X129260600Y-76149200D01*
X129260600Y-60934600D01*
G37*
D12*
%TO.C,RV1*%
X148336000Y-106807000D03*
X145796000Y-106807000D03*
X143256000Y-106807000D03*
%TD*%
D13*
%TO.C,*%
X144983200Y-61899800D03*
%TD*%
%TO.C,*%
X98679000Y-71879000D03*
%TD*%
%TO.C,*%
X151003000Y-66344800D03*
%TD*%
%TO.C,*%
X155448000Y-74713600D03*
%TD*%
%TO.C,*%
X153924000Y-63144400D03*
%TD*%
%TO.C,*%
X101727000Y-71879000D03*
%TD*%
%TO.C,*%
X130505200Y-64516333D03*
%TD*%
%TO.C,*%
X105740200Y-66344800D03*
%TD*%
%TO.C,*%
X157022800Y-72046933D03*
%TD*%
%TO.C,*%
X132029200Y-67183000D03*
%TD*%
%TO.C,*%
X97155000Y-63500000D03*
%TD*%
%TO.C,*%
X124841000Y-67183000D03*
%TD*%
%TO.C,*%
X121793000Y-64513000D03*
%TD*%
%TO.C,*%
X147116800Y-73050400D03*
%TD*%
D14*
%TO.C,*%
X167792400Y-62280800D03*
%TD*%
D13*
%TO.C,*%
X118237000Y-66370200D03*
%TD*%
%TO.C,*%
X147116800Y-74599800D03*
%TD*%
%TO.C,*%
X126365000Y-64513000D03*
%TD*%
%TO.C,*%
X124841000Y-63183000D03*
%TD*%
%TO.C,*%
X121793000Y-65853000D03*
%TD*%
%TO.C,*%
X101727000Y-66167000D03*
%TD*%
%TO.C,*%
X97155000Y-73193600D03*
%TD*%
%TO.C,*%
X158546800Y-64477733D03*
%TD*%
%TO.C,*%
X100203000Y-73219000D03*
%TD*%
%TO.C,*%
X97155000Y-74523600D03*
%TD*%
%TO.C,*%
X157022800Y-67144400D03*
%TD*%
%TO.C,*%
X138988800Y-70739000D03*
%TD*%
D15*
%TO.C,J5*%
X116372800Y-64164400D03*
X111937800Y-64164400D03*
X107502800Y-64164400D03*
X116372800Y-68599400D03*
D16*
X111937800Y-68599400D03*
D15*
X107502800Y-68599400D03*
X116372800Y-73034400D03*
X111937800Y-73034400D03*
X107502800Y-73034400D03*
%TD*%
D13*
%TO.C,*%
X98679000Y-70549000D03*
%TD*%
%TO.C,*%
X153924000Y-67144400D03*
%TD*%
%TO.C,*%
X109753400Y-64135000D03*
%TD*%
%TO.C,*%
X158546800Y-72046933D03*
%TD*%
%TO.C,*%
X153924000Y-65811066D03*
%TD*%
%TO.C,*%
X116357400Y-70866000D03*
%TD*%
%TO.C,*%
X157022800Y-74713600D03*
%TD*%
%TO.C,*%
X109855000Y-73025000D03*
%TD*%
%TO.C,*%
X133604000Y-63183000D03*
%TD*%
%TO.C,*%
X142824200Y-62611000D03*
%TD*%
%TO.C,*%
X98679000Y-64830000D03*
%TD*%
D14*
%TO.C,*%
X89687400Y-75895200D03*
%TD*%
D13*
%TO.C,*%
X153924000Y-74713600D03*
%TD*%
D17*
%TO.C,*%
X184658000Y-59436000D03*
%TD*%
D13*
%TO.C,*%
X157022800Y-65811066D03*
%TD*%
%TO.C,*%
X109753400Y-62306200D03*
%TD*%
D18*
%TO.C,J3*%
X182974000Y-102350000D03*
D19*
X182974000Y-98850000D03*
X182974000Y-95350000D03*
X182974000Y-91850000D03*
%TD*%
D13*
%TO.C,*%
X97155000Y-67500000D03*
%TD*%
D17*
%TO.C,*%
X184658000Y-108458000D03*
%TD*%
D13*
%TO.C,*%
X107492800Y-66344800D03*
%TD*%
%TO.C,*%
X158546800Y-74713600D03*
%TD*%
%TO.C,*%
X100203000Y-70549000D03*
%TD*%
%TO.C,*%
X158546800Y-65811066D03*
%TD*%
%TO.C,*%
X97155000Y-70523600D03*
%TD*%
%TO.C,*%
X107492800Y-70866000D03*
%TD*%
%TO.C,*%
X100203000Y-71879000D03*
%TD*%
%TO.C,*%
X98679000Y-67497000D03*
%TD*%
D14*
%TO.C,*%
X167792400Y-75920600D03*
%TD*%
D13*
%TO.C,*%
X123317000Y-67183000D03*
%TD*%
%TO.C,*%
X97155000Y-66166666D03*
%TD*%
%TO.C,*%
X105257600Y-68630800D03*
%TD*%
%TO.C,*%
X114300000Y-73050400D03*
%TD*%
%TO.C,*%
X123317000Y-64513000D03*
%TD*%
D17*
%TO.C,*%
X83820000Y-108458000D03*
%TD*%
D13*
%TO.C,*%
X101727000Y-70549000D03*
%TD*%
%TO.C,*%
X126365000Y-67183000D03*
%TD*%
%TO.C,*%
X100203000Y-63500000D03*
%TD*%
%TO.C,*%
X155448000Y-67144400D03*
%TD*%
%TO.C,*%
X98679000Y-74549000D03*
%TD*%
%TO.C,*%
X157022800Y-73380266D03*
%TD*%
D20*
%TO.C,J2*%
X160274000Y-94361000D03*
D21*
X157734000Y-94361000D03*
X155194000Y-94361000D03*
X152654000Y-94361000D03*
X150114000Y-94361000D03*
X147574000Y-94361000D03*
X145034000Y-94361000D03*
X142494000Y-94361000D03*
X139954000Y-94361000D03*
X137414000Y-94361000D03*
X134874000Y-94361000D03*
%TD*%
D13*
%TO.C,*%
X155448000Y-72046933D03*
%TD*%
%TO.C,*%
X105765600Y-70840600D03*
%TD*%
%TO.C,*%
X139065000Y-66421000D03*
%TD*%
%TO.C,*%
X126365000Y-65853000D03*
%TD*%
%TO.C,*%
X147142200Y-64185800D03*
%TD*%
%TO.C,*%
X114300000Y-75057000D03*
%TD*%
%TO.C,*%
X140538200Y-70739000D03*
%TD*%
%TO.C,*%
X149453600Y-66344800D03*
%TD*%
%TO.C,*%
X158546800Y-67144400D03*
%TD*%
%TO.C,*%
X147142200Y-62687200D03*
%TD*%
%TO.C,*%
X155448000Y-64477733D03*
%TD*%
%TO.C,*%
X101727000Y-63500000D03*
%TD*%
%TO.C,*%
X101727000Y-67497000D03*
%TD*%
%TO.C,*%
X124841000Y-64513000D03*
%TD*%
%TO.C,*%
X98679000Y-66167000D03*
%TD*%
%TO.C,*%
X135128000Y-63183000D03*
%TD*%
%TO.C,*%
X142798800Y-74523600D03*
%TD*%
%TO.C,*%
X124841000Y-65853000D03*
%TD*%
%TO.C,*%
X114249200Y-62407800D03*
%TD*%
%TO.C,*%
X133604000Y-67183000D03*
%TD*%
%TO.C,*%
X158546800Y-70713600D03*
%TD*%
%TO.C,*%
X140563600Y-66421000D03*
%TD*%
%TO.C,*%
X97155000Y-64833333D03*
%TD*%
%TO.C,*%
X130505200Y-67183000D03*
%TD*%
D14*
%TO.C,*%
X89687400Y-62255400D03*
%TD*%
D13*
%TO.C,*%
X116357400Y-66344800D03*
%TD*%
%TO.C,*%
X123317000Y-65853000D03*
%TD*%
%TO.C,*%
X155448000Y-73380266D03*
%TD*%
%TO.C,*%
X153924000Y-73380266D03*
%TD*%
%TO.C,*%
X133604000Y-64516333D03*
%TD*%
%TO.C,*%
X153924000Y-64477733D03*
%TD*%
D22*
%TO.C,U3*%
X126547800Y-93759400D03*
D23*
X128457800Y-93759400D03*
X130367800Y-93759400D03*
D24*
X129507800Y-71729400D03*
D25*
X129507800Y-72989400D03*
D13*
X130257800Y-70699400D03*
X130257800Y-74019400D03*
X131457800Y-70309400D03*
X131457800Y-74409400D03*
X132787800Y-70309400D03*
X132787800Y-74409400D03*
D26*
X133557800Y-72359400D03*
D13*
X134127800Y-70309400D03*
X134127800Y-74409400D03*
X135457800Y-70309400D03*
X135457800Y-74409400D03*
X136657800Y-70699400D03*
X136657800Y-74019400D03*
X137407800Y-71729400D03*
X137407800Y-72989400D03*
X119507800Y-71729400D03*
X119507800Y-72989400D03*
X120257800Y-70699400D03*
X120257800Y-74019400D03*
X121457800Y-70309400D03*
X121457800Y-74409400D03*
X122787800Y-70309400D03*
X122787800Y-74409400D03*
D26*
X123357800Y-72359400D03*
D13*
X124127800Y-70309400D03*
X124127800Y-74409400D03*
X125457800Y-70309400D03*
X125457800Y-74409400D03*
X126657800Y-70699400D03*
X126657800Y-74019400D03*
D25*
X127407800Y-71729400D03*
D24*
X127407800Y-72989400D03*
%TD*%
D13*
%TO.C,*%
X157022800Y-64477733D03*
%TD*%
%TO.C,*%
X130505200Y-65849666D03*
%TD*%
%TO.C,*%
X118262400Y-70891400D03*
%TD*%
%TO.C,*%
X98679000Y-63500000D03*
%TD*%
%TO.C,*%
X158546800Y-73380266D03*
%TD*%
%TO.C,*%
X126365000Y-63183000D03*
%TD*%
%TO.C,*%
X100203000Y-74549000D03*
%TD*%
%TO.C,*%
X155448000Y-63144400D03*
%TD*%
D27*
%TO.C,J1*%
X88417400Y-87909400D03*
D28*
X88417400Y-92989400D03*
X88417400Y-98069400D03*
%TD*%
D18*
%TO.C,J6*%
X182995500Y-85289000D03*
D19*
X182995500Y-81479000D03*
%TD*%
D13*
%TO.C,*%
X130505200Y-63183000D03*
%TD*%
%TO.C,*%
X153924000Y-70713600D03*
%TD*%
%TO.C,*%
X112014000Y-61620400D03*
%TD*%
D17*
%TO.C,REF\u002A\u002A*%
X83853987Y-59563000D03*
%TD*%
D13*
%TO.C,*%
X144957800Y-75311000D03*
%TD*%
%TO.C,*%
X149428200Y-70662800D03*
%TD*%
%TO.C,*%
X114249200Y-64185800D03*
%TD*%
%TO.C,*%
X98679000Y-73219000D03*
%TD*%
%TO.C,*%
X101727000Y-73219000D03*
%TD*%
%TO.C,*%
X101727000Y-74549000D03*
%TD*%
%TO.C,*%
X97155000Y-71853600D03*
%TD*%
%TO.C,*%
X132029200Y-63183000D03*
%TD*%
%TO.C,*%
X151714200Y-68503800D03*
%TD*%
%TO.C,*%
X153924000Y-72046933D03*
%TD*%
%TO.C,*%
X138277600Y-68580000D03*
%TD*%
%TO.C,*%
X123317000Y-63183000D03*
%TD*%
%TO.C,*%
X158546800Y-63144400D03*
%TD*%
%TO.C,*%
X100203000Y-66167000D03*
%TD*%
%TO.C,*%
X121793000Y-67183000D03*
%TD*%
%TO.C,*%
X109855000Y-75057000D03*
%TD*%
%TO.C,*%
X155448000Y-65811066D03*
%TD*%
%TO.C,*%
X100203000Y-64830000D03*
%TD*%
D15*
%TO.C,J4*%
X149402800Y-64164400D03*
X144967800Y-64164400D03*
X140532800Y-64164400D03*
X149402800Y-68599400D03*
D16*
X144967800Y-68599400D03*
D15*
X140532800Y-68599400D03*
X149402800Y-73034400D03*
X144967800Y-73034400D03*
X140532800Y-73034400D03*
%TD*%
D13*
%TO.C,*%
X157022800Y-70713600D03*
%TD*%
%TO.C,*%
X157022800Y-63144400D03*
%TD*%
%TO.C,*%
X111988600Y-75666600D03*
%TD*%
%TO.C,*%
X135128000Y-67183000D03*
%TD*%
%TO.C,*%
X135128000Y-65849666D03*
%TD*%
%TO.C,*%
X142824200Y-64160400D03*
%TD*%
%TO.C,*%
X101727000Y-64830000D03*
%TD*%
%TO.C,*%
X132029200Y-64516333D03*
%TD*%
%TO.C,*%
X118948200Y-68630800D03*
%TD*%
%TO.C,*%
X132029200Y-65849666D03*
%TD*%
%TO.C,*%
X150926800Y-70662800D03*
%TD*%
%TO.C,*%
X133604000Y-65849666D03*
%TD*%
%TO.C,*%
X155448000Y-70713600D03*
%TD*%
D29*
%TO.C,PS1*%
X119867700Y-94352400D03*
D30*
X117327700Y-94352400D03*
X114787700Y-94352400D03*
X112247700Y-94352400D03*
%TD*%
D13*
%TO.C,*%
X135128000Y-64516333D03*
%TD*%
%TO.C,*%
X142798800Y-73025000D03*
%TD*%
%TO.C,*%
X100203000Y-67497000D03*
%TD*%
%TO.C,*%
X121793000Y-63183000D03*
%TD*%
M02*
